HIERARCHY
ROOT joint_0
{
	OFFSET 0.000000 0.000000 0.000000
	CHANNELS 6 Xposition Yposition Zposition Zrotation Yrotation Xrotation 
	JOINT joint_1
	{
		OFFSET 11.612000 -0.419000 106.198000
		CHANNELS 3 Zrotation Yrotation Xrotation
		JOINT joint_2
		{
			OFFSET -1.708000 -1.022000 97.564090
			CHANNELS 3 Zrotation Yrotation Xrotation
			JOINT joint_3
			{
				OFFSET -4.121000 -1.538000 97.375000
				CHANNELS 3 Zrotation Yrotation Xrotation
				JOINT joint_4
				{
					OFFSET 5.442000 -2.123000 132.795900
					CHANNELS 3 Zrotation Yrotation Xrotation
					JOINT joint_5
					{
						OFFSET 21.935000 0.195000 82.975100
						CHANNELS 3 Zrotation Yrotation Xrotation
						End Site
						{
							OFFSET 0.000000 0.000000 0.000000
						}
					}
				}
				JOINT joint_6
				{
					OFFSET 4.262000 -30.048000 73.899900
					CHANNELS 3 Zrotation Yrotation Xrotation
					JOINT joint_7
					{
						OFFSET 9.731000 -136.810010 -21.963010
						CHANNELS 3 Zrotation Yrotation Xrotation
						JOINT joint_8
						{
							OFFSET 33.360000 -35.709000 -267.597900
							CHANNELS 3 Zrotation Yrotation Xrotation
							JOINT joint_9
							{
								OFFSET 36.156000 -29.759000 -240.558040
								CHANNELS 3 Zrotation Yrotation Xrotation
								End Site
								{
									OFFSET 0.000000 0.000000 0.000000
								}
							}
						}
					}
				}
				JOINT joint_10
				{
					OFFSET 2.027000 27.734000 74.914920
					CHANNELS 3 Zrotation Yrotation Xrotation
					JOINT joint_11
					{
						OFFSET -5.183000 136.784000 -23.604980
						CHANNELS 3 Zrotation Yrotation Xrotation
						JOINT joint_12
						{
							OFFSET 29.806000 37.229000 -267.809940
							CHANNELS 3 Zrotation Yrotation Xrotation
							JOINT joint_13
							{
								OFFSET 36.890000 46.524990 -237.772030
								CHANNELS 3 Zrotation Yrotation Xrotation
								End Site
								{
									OFFSET 0.000000 0.000000 0.000000
								}
							}
						}
					}
				}
			}
		}
	}
	JOINT joint_14
	{
		OFFSET -7.290000 -102.873990 -124.314940
		CHANNELS 3 Zrotation Yrotation Xrotation
		JOINT joint_15
		{
			OFFSET -15.466000 -19.909010 -438.533020
			CHANNELS 3 Zrotation Yrotation Xrotation
			JOINT joint_16
			{
				OFFSET -26.899000 -18.922000 -464.797000
				CHANNELS 3 Zrotation Yrotation Xrotation
				JOINT joint_17
				{
					OFFSET 179.329000 -12.011000 -84.174000
					CHANNELS 3 Zrotation Yrotation Xrotation
					End Site
					{
						OFFSET 0.000000 0.000000 0.000000
					}
				}
			}
		}
	}
	JOINT joint_18
	{
		OFFSET -6.225000 101.546000 -125.479980
		CHANNELS 3 Zrotation Yrotation Xrotation
		JOINT joint_19
		{
			OFFSET -13.973000 7.996000 -438.963010
			CHANNELS 3 Zrotation Yrotation Xrotation
			JOINT joint_20
			{
				OFFSET -44.294000 5.716000 -463.813970
				CHANNELS 3 Zrotation Yrotation Xrotation
				JOINT joint_21
				{
					OFFSET 178.505000 -4.689000 -85.139000
					CHANNELS 3 Zrotation Yrotation Xrotation
					End Site
					{
						OFFSET 0.000000 0.000000 0.000000
					}
				}
			}
		}
	}
}
MOTION
Frames: 13
Frame Time: 0.016667
98.045000 -31.184000 1149.760990 -1.000690 3.528368 1.476844 -0.956106 5.597267 0.705694 -1.113061 -1.113779 -0.259247 -1.063105 1.086903 0.144318 -0.130922 7.526465 0.624061 0.000000 0.000000 0.000000 -0.453039 -1.571854 1.488251 0.311200 -1.774213 0.408945 0.598141 -3.006298 1.346045 0.000000 0.000000 0.000000 -1.888716 -2.740480 0.826307 -0.896326 -2.670567 -1.725067 -1.058344 -4.414422 -1.574690 0.000000 0.000000 0.000000 -0.214158 -0.285097 -0.076407 -0.604820 7.823794 0.640734 -0.257600 0.016368 -0.116435 0.000000 0.000000 0.000000 1.913024 -0.569906 0.811050 2.040535 5.498252 0.067742 1.980418 4.674399 1.042850 0.000000 0.000000 0.000000 
103.649000 -32.446000 1149.886960 -0.934798 3.525488 1.402944 -0.949606 5.810114 0.866067 -1.115310 -1.153435 -0.288414 -1.061314 1.127644 0.169574 -0.124868 7.464907 0.592325 0.000000 0.000000 0.000000 -0.442203 -1.698667 1.499256 0.343342 -1.900938 0.474358 0.645123 -3.127779 1.547305 0.000000 0.000000 0.000000 -1.890843 -2.862741 0.790604 -0.922680 -2.800150 -1.845473 -1.011968 -4.359295 -1.325181 0.000000 0.000000 0.000000 -0.269162 -0.254613 0.078599 -0.678828 8.337485 0.658531 -0.313556 0.036299 -0.140268 0.000000 0.000000 0.000000 1.889902 -1.273233 0.992759 2.070439 7.337678 0.081653 2.010455 4.319424 1.043799 0.000000 0.000000 0.000000 
109.320000 -33.713000 1149.928960 -0.847549 3.491453 1.266861 -0.934325 6.065248 1.149826 -1.105758 -1.206508 -0.349229 -1.044772 1.175078 0.198121 -0.112737 7.416617 0.534551 0.000000 0.000000 0.000000 -0.442212 -1.806742 1.459266 0.374768 -2.005796 0.554529 0.694600 -3.254057 1.761612 0.000000 0.000000 0.000000 -1.877823 -2.951800 0.761236 -0.949522 -2.900182 -1.974448 -0.983599 -4.328605 -1.169395 0.000000 0.000000 0.000000 -0.339503 -0.139008 0.328979 -0.757286 8.759907 0.637221 -0.384450 0.120729 -0.166460 0.000000 0.000000 0.000000 1.858171 -2.313596 1.263652 2.111738 9.840725 0.090634 2.062057 3.872408 1.050592 0.000000 0.000000 0.000000 
115.028000 -35.007000 1149.831050 -0.738345 3.418856 1.077024 -0.914052 6.365692 1.539451 -1.081939 -1.269676 -0.440276 -1.010562 1.223936 0.230333 -0.097695 7.372674 0.462020 0.000000 0.000000 0.000000 -0.447240 -1.895782 1.377604 0.404050 -2.088853 0.637505 0.747628 -3.387362 1.994608 0.000000 0.000000 0.000000 -1.858019 -3.013319 0.735790 -0.976031 -2.974607 -2.111997 -0.967195 -4.323998 -1.062996 0.000000 0.000000 0.000000 -0.420389 0.054212 0.656528 -0.838039 9.126986 0.593108 -0.464786 0.222893 -0.195527 0.000000 0.000000 0.000000 1.807578 -3.636820 1.619296 2.145970 12.911923 0.088189 2.126635 3.461159 1.061660 0.000000 0.000000 0.000000 
120.664000 -36.328000 1149.458980 -0.527483 3.306640 0.920130 -0.924161 6.692795 1.873362 -1.059359 -1.321681 -0.496040 -0.976290 1.275271 0.272276 -0.087024 7.324873 0.398971 0.000000 0.000000 0.000000 -0.446195 -1.973043 1.250003 0.430473 -2.155529 0.718638 0.798236 -3.514645 2.221742 0.000000 0.000000 0.000000 -1.845239 -3.059587 0.729184 -1.005217 -3.034797 -2.266444 -0.965977 -4.399699 -0.962521 0.000000 0.000000 0.000000 -0.517066 0.331483 0.940694 -0.929972 9.460603 0.577783 -0.553604 0.207997 -0.235816 0.000000 0.000000 0.000000 1.676662 -5.336305 1.999993 2.105752 16.675794 0.024695 2.142304 3.292368 1.052885 0.000000 0.000000 0.000000 
126.129000 -37.757000 1148.814940 -0.149365 3.128394 0.771847 -0.994038 7.086345 2.218280 -1.046110 -1.363595 -0.556295 -0.945684 1.325400 0.328879 -0.084808 7.268940 0.357690 0.000000 0.000000 0.000000 -0.441705 -2.042426 1.050545 0.457596 -2.206715 0.827823 0.845746 -3.640785 2.436878 0.000000 0.000000 0.000000 -1.857850 -3.093966 0.770271 -1.040679 -3.083702 -2.461050 -0.982959 -4.582502 -0.856229 0.000000 0.000000 0.000000 -0.636208 0.737618 1.216711 -1.031456 9.739403 0.593850 -0.651465 0.071985 -0.287677 0.000000 0.000000 0.000000 1.423888 -7.523309 2.483607 1.932258 21.361237 -0.171346 2.056675 3.831062 1.011038 0.000000 0.000000 0.000000 
131.521000 -39.212000 1147.896000 0.288480 2.884324 0.552046 -1.097292 7.570006 2.707370 -1.008265 -1.424932 -0.681878 -0.880228 1.371248 0.393051 -0.087106 7.209660 0.326299 0.000000 0.000000 0.000000 -0.431824 -2.098897 0.797987 0.482246 -2.239496 0.941796 0.890802 -3.763383 2.646144 0.000000 0.000000 0.000000 -1.876063 -3.111766 0.832712 -1.079022 -3.117457 -2.672718 -1.016070 -4.846650 -0.760142 0.000000 0.000000 0.000000 -0.766817 1.256108 1.578907 -1.122108 9.971835 0.610145 -0.746107 -0.119624 -0.341134 0.000000 0.000000 0.000000 1.125608 -10.012569 3.102924 1.650393 26.564756 -0.449631 1.894492 5.078476 0.948708 0.000000 0.000000 0.000000 
137.021000 -40.456000 1146.558960 0.663370 2.644573 0.295549 -1.201265 8.032779 3.226505 -0.918955 -1.488030 -0.811779 -0.757777 1.406695 0.453188 -0.089246 7.157122 0.292817 0.000000 0.000000 0.000000 -0.404752 -2.132514 0.558452 0.492931 -2.251153 0.972974 0.929874 -3.858109 2.846464 0.000000 0.000000 0.000000 -1.864296 -3.111335 0.847657 -1.112017 -3.133760 -2.838348 -1.061403 -5.168305 -0.674880 0.000000 0.000000 0.000000 -0.902626 1.773258 1.963007 -1.202054 10.224389 0.636334 -0.833772 -0.417764 -0.397878 0.000000 0.000000 0.000000 0.888456 -12.559473 3.699411 1.326801 31.630408 -0.672093 1.705902 6.307463 0.873377 0.000000 0.000000 0.000000 
142.585010 -41.449000 1144.602050 1.005949 2.444512 0.035771 -1.325022 8.391451 3.711351 -0.779043 -1.517849 -0.903469 -0.580004 1.434352 0.509915 -0.088883 7.114157 0.247336 0.000000 0.000000 0.000000 -0.344538 -2.133433 0.323070 0.484840 -2.229996 0.890505 0.972537 -3.952020 3.079400 0.000000 0.000000 0.000000 -1.814595 -3.098263 0.791268 -1.140306 -3.138231 -2.945611 -1.124825 -5.589990 -0.587275 0.000000 0.000000 0.000000 -1.064097 2.246170 2.320377 -1.292136 10.521562 0.702007 -0.932872 -0.907874 -0.471644 0.000000 0.000000 0.000000 0.765287 -15.331222 4.169056 0.981073 36.857149 -0.728842 1.537653 7.199952 0.796397 0.000000 0.000000 0.000000 
148.257000 -42.231000 1142.225950 1.277726 2.243149 -0.269580 -1.449555 8.743055 4.241390 -0.585421 -1.554856 -1.008176 -0.338829 1.451601 0.561565 -0.088339 7.078930 0.199422 0.000000 0.000000 0.000000 -0.266803 -2.109025 0.100925 0.462198 -2.185014 0.725635 1.009726 -4.020220 3.305654 0.000000 0.000000 0.000000 -1.735879 -3.066686 0.687675 -1.163608 -3.124579 -3.003254 -1.202260 -6.070024 -0.516817 0.000000 0.000000 0.000000 -1.231057 2.725528 2.708672 -1.363960 10.837953 0.772347 -1.021515 -1.496632 -0.546676 0.000000 0.000000 0.000000 0.754616 -18.176219 4.600564 0.591418 41.983485 -0.697115 1.343609 7.997079 0.705856 0.000000 0.000000 0.000000 
154.347000 -42.676000 1139.896000 1.374589 2.066485 -0.584685 -1.508451 9.086845 4.734761 -0.365929 -1.625087 -1.123912 -0.069581 1.462091 0.602859 -0.088239 7.056044 0.160618 0.000000 0.000000 0.000000 -0.188519 -2.080439 -0.009600 0.427535 -2.147988 0.475251 1.010125 -3.950252 3.402643 0.000000 0.000000 0.000000 -1.606737 -3.000138 0.528434 -1.171168 -3.075924 -2.970106 -1.274543 -6.458377 -0.510837 0.000000 0.000000 0.000000 -1.360357 3.168532 3.091195 -1.396913 11.174799 0.797697 -1.075616 -2.033476 -0.603141 0.000000 0.000000 0.000000 0.790912 -20.584744 5.033269 0.200115 45.889807 -0.730965 1.013849 8.188752 0.553300 0.000000 0.000000 0.000000 
160.955990 -42.771000 1137.634030 1.300733 1.979341 -0.846219 -1.479112 9.270436 5.073071 -0.150153 -1.683943 -1.208771 0.185356 1.471541 0.632034 -0.089680 7.063764 0.138761 0.000000 0.000000 0.000000 -0.107667 -2.051475 0.085439 0.373713 -2.133930 0.056371 0.965916 -3.676054 3.364070 0.000000 0.000000 0.000000 -1.387858 -2.892678 0.262874 -1.152957 -2.985561 -2.754565 -1.348387 -6.736295 -0.633553 0.000000 0.000000 0.000000 -1.454030 3.496850 3.406321 -1.419026 11.552820 0.770287 -1.117015 -2.550846 -0.653060 0.000000 0.000000 0.000000 0.774804 -22.495426 5.489818 -0.200344 48.476425 -0.979054 0.364612 7.052493 0.250551 0.000000 0.000000 0.000000 
167.981990 -42.529000 1135.418950 1.166602 1.982893 -1.047886 -1.397533 9.294077 5.275279 0.039064 -1.708752 -1.258068 0.400161 1.485055 0.654649 -0.092541 7.085216 0.128895 0.000000 0.000000 0.000000 -0.025385 -2.020741 0.307869 0.307740 -2.131889 -0.464235 0.886536 -3.256027 3.202001 0.000000 0.000000 0.000000 -1.122764 -2.753808 -0.062871 -1.116818 -2.861726 -2.437254 -1.415862 -6.918688 -0.816920 0.000000 0.000000 0.000000 -1.532610 3.727122 3.643076 -1.450791 11.949388 0.720333 -1.163890 -3.053996 -0.704626 0.000000 0.000000 0.000000 0.733192 -24.161428 5.903053 -0.564142 50.107637 -1.289106 -0.407436 5.032706 -0.115654 0.000000 0.000000 0.000000 
